HIERARCHY
ROOT __0
{
	OFFSET 0.0 0.0 0.0
	CHANNELS 6 Xposition Yposition Zposition Xrotation Yrotation Zrotation
	JOINT B_spine
	{
		OFFSET 0.000000 8.378193 -0.000042
		CHANNELS 6 Xposition Yposition Zposition Xrotation Yrotation Zrotation
		JOINT B_chest
		{
			OFFSET 0.000000 19.980549 -1.446528
			CHANNELS 6 Xposition Yposition Zposition Xrotation Yrotation Zrotation
			JOINT B_neck
			{
				OFFSET 0.000000 26.789227 -3.910883
				CHANNELS 6 Xposition Yposition Zposition Xrotation Yrotation Zrotation
				JOINT B_head
				{
					OFFSET 0.000000 7.395664 0.457887
					CHANNELS 6 Xposition Yposition Zposition Xrotation Yrotation Zrotation
					JOINT B_jaw
					{
						OFFSET 0.000000 0.000015 -0.000001
						CHANNELS 6 Xposition Yposition Zposition Xrotation Yrotation Zrotation
						End Site
						{
							OFFSET 0.000000 0.000782 0.009968
						}
					}
				}
			}
			JOINT B_shoulder_L
			{
				OFFSET -0.000000 18.838318 -3.287145
				CHANNELS 6 Xposition Yposition Zposition Xrotation Yrotation Zrotation
				JOINT B_upperArm_L
				{
					OFFSET 20.013100 -0.188515 -2.402215
					CHANNELS 6 Xposition Yposition Zposition Xrotation Yrotation Zrotation
					JOINT B_forearm_L
					{
						OFFSET 23.351597 -1.618710 0.537324
						CHANNELS 6 Xposition Yposition Zposition Xrotation Yrotation Zrotation
						JOINT B_hand_L
						{
							OFFSET 19.552296 -1.228146 0.466768
							CHANNELS 6 Xposition Yposition Zposition Xrotation Yrotation Zrotation
							JOINT B_indexFinger01_L
							{
								OFFSET 14.197121 0.114693 5.224828
								CHANNELS 6 Xposition Yposition Zposition Xrotation Yrotation Zrotation
								JOINT B_indexFinger02_L
								{
									OFFSET 5.096687 -0.322006 0.792609
									CHANNELS 6 Xposition Yposition Zposition Xrotation Yrotation Zrotation
									JOINT B_indexFinger03_L
									{
										OFFSET 3.728058 -0.655708 0.582659
										CHANNELS 6 Xposition Yposition Zposition Xrotation Yrotation Zrotation
										End Site
										{
											OFFSET 3.747520 -0.612564 0.498699
										}
									}
								}
							}
							JOINT B_middleFinger01_L
							{
								OFFSET 14.456993 0.622726 2.228930
								CHANNELS 6 Xposition Yposition Zposition Xrotation Yrotation Zrotation
								JOINT B_middleFinger02_L
								{
									OFFSET 5.364159 -0.114269 0.451116
									CHANNELS 6 Xposition Yposition Zposition Xrotation Yrotation Zrotation
									JOINT B_middleFinger03_L
									{
										OFFSET 3.878822 -0.719913 0.412559
										CHANNELS 6 Xposition Yposition Zposition Xrotation Yrotation Zrotation
										End Site
										{
											OFFSET 3.876266 -0.759529 0.362470
										}
									}
								}
							}
							JOINT B_pinky01_L
							{
								OFFSET 13.580017 -0.491467 -3.419242
								CHANNELS 6 Xposition Yposition Zposition Xrotation Yrotation Zrotation
								JOINT B_pinky02_L
								{
									OFFSET 4.234497 -0.090263 -0.078082
									CHANNELS 3 Xrotation Yrotation Zrotation
									JOINT B_pinky03_L
									{
										OFFSET 3.514511 -0.552479 0.098806
										CHANNELS 6 Xposition Yposition Zposition Xrotation Yrotation Zrotation
										End Site
										{
											OFFSET 3.485046 -0.698925 0.180805
										}
									}
								}
							}
							JOINT B_ringFinger01_L
							{
								OFFSET 14.299881 0.060757 -0.556457
								CHANNELS 6 Xposition Yposition Zposition Xrotation Yrotation Zrotation
								JOINT B_ringFinger02_L
								{
									OFFSET 4.993225 -0.107780 0.072651
									CHANNELS 6 Xposition Yposition Zposition Xrotation Yrotation Zrotation
									JOINT B_ringFinger03_L
									{
										OFFSET 3.778389 -0.597057 0.268810
										CHANNELS 6 Xposition Yposition Zposition Xrotation Yrotation Zrotation
										End Site
										{
											OFFSET 3.753319 -0.768082 0.166223
										}
									}
								}
							}
							JOINT B_thumb01_L
							{
								OFFSET 4.907181 -1.257126 4.950770
								CHANNELS 6 Xposition Yposition Zposition Xrotation Yrotation Zrotation
								JOINT B_thumb02_L
								{
									OFFSET 3.970413 -1.738136 2.899369
									CHANNELS 6 Xposition Yposition Zposition Xrotation Yrotation Zrotation
									JOINT B_thumb03_L
									{
										OFFSET 3.139023 -1.269691 1.917772
										CHANNELS 6 Xposition Yposition Zposition Xrotation Yrotation Zrotation
										End Site
										{
											OFFSET 2.863029 -1.283310 2.302091
										}
									}
								}
							}
						}
					}
				}
			}
			JOINT B_shoulder_R
			{
				OFFSET 0.000000 18.838318 -3.287145
				CHANNELS 6 Xposition Yposition Zposition Xrotation Yrotation Zrotation
				JOINT B_upperArm_R
				{
					OFFSET -20.013100 -0.188515 -2.402215
					CHANNELS 6 Xposition Yposition Zposition Xrotation Yrotation Zrotation
					JOINT B_forearm_R
					{
						OFFSET -23.351696 -1.619377 0.529252
						CHANNELS 6 Xposition Yposition Zposition Xrotation Yrotation Zrotation
						JOINT B_hand_R
						{
							OFFSET -19.552219 -1.227554 0.474845
							CHANNELS 3 Xrotation Yrotation Zrotation
							JOINT B_indexFinger01_R
							{
								OFFSET -14.197105 0.114769 5.224829
								CHANNELS 6 Xposition Yposition Zposition Xrotation Yrotation Zrotation
								JOINT B_indexFinger02_R
								{
									OFFSET -5.096695 -0.322025 0.792607
									CHANNELS 6 Xposition Yposition Zposition Xrotation Yrotation Zrotation
									JOINT B_indexFinger03_R
									{
										OFFSET -3.728096 -0.655659 0.582654
										CHANNELS 6 Xposition Yposition Zposition Xrotation Yrotation Zrotation
										End Site
										{
											OFFSET -3.747551 -0.612572 0.498704
										}
									}
								}
							}
							JOINT B_middleFinger01_R
							{
								OFFSET -14.456993 0.622879 2.228918
								CHANNELS 6 Xposition Yposition Zposition Xrotation Yrotation Zrotation
								JOINT B_middleFinger02_R
								{
									OFFSET -5.364197 -0.114338 0.451122
									CHANNELS 6 Xposition Yposition Zposition Xrotation Yrotation Zrotation
									JOINT B_middleFinger03_R
									{
										OFFSET -3.878792 -0.720070 0.412572
										CHANNELS 6 Xposition Yposition Zposition Xrotation Yrotation Zrotation
										End Site
										{
											OFFSET -3.876274 -0.759541 0.362473
										}
									}
								}
							}
							JOINT B_pinky01_R
							{
								OFFSET -13.580002 -0.491497 -3.419239
								CHANNELS 6 Xposition Yposition Zposition Xrotation Yrotation Zrotation
								JOINT B_pinky02_R
								{
									OFFSET -4.234398 -0.090225 -0.078083
									CHANNELS 3 Xrotation Yrotation Zrotation
									JOINT B_pinky03_R
									{
										OFFSET -3.514503 -0.552494 0.098809
										CHANNELS 6 Xposition Yposition Zposition Xrotation Yrotation Zrotation
										End Site
										{
											OFFSET -3.485046 -0.698902 0.180804
										}
									}
								}
							}
							JOINT B_ringFinger01_R
							{
								OFFSET -14.299896 0.060863 -0.556464
								CHANNELS 6 Xposition Yposition Zposition Xrotation Yrotation Zrotation
								JOINT B_ringFinger02_R
								{
									OFFSET -4.993202 -0.107822 0.072652
									CHANNELS 6 Xposition Yposition Zposition Xrotation Yrotation Zrotation
									JOINT B_ringFinger03_R
									{
										OFFSET -3.778404 -0.597164 0.268818
										CHANNELS 6 Xposition Yposition Zposition Xrotation Yrotation Zrotation
										End Site
										{
											OFFSET -3.753349 -0.768085 0.166225
										}
									}
								}
							}
							JOINT B_thumb01_R
							{
								OFFSET -4.907188 -1.257080 4.950771
								CHANNELS 6 Xposition Yposition Zposition Xrotation Yrotation Zrotation
								JOINT B_thumb02_R
								{
									OFFSET -3.970398 -1.738106 2.899386
									CHANNELS 6 Xposition Yposition Zposition Xrotation Yrotation Zrotation
									JOINT B_thumb03_R
									{
										OFFSET -3.138870 -1.269783 1.917762
										CHANNELS 6 Xposition Yposition Zposition Xrotation Yrotation Zrotation
										End Site
										{
											OFFSET -2.862953 -1.283279 2.302032
										}
									}
								}
							}
						}
					}
				}
			}
		}
	}
	JOINT B_thigh_L
	{
		OFFSET 8.695102 -5.449859 0.093442
		CHANNELS 6 Xposition Yposition Zposition Xrotation Yrotation Zrotation
		JOINT B_shin_L
		{
			OFFSET 3.147997 -40.844475 4.601263
			CHANNELS 6 Xposition Yposition Zposition Xrotation Yrotation Zrotation
			JOINT B_foot_L
			{
				OFFSET -0.017695 -38.798004 -0.869704
				CHANNELS 6 Xposition Yposition Zposition Xrotation Yrotation Zrotation
				JOINT B_toe_L
				{
					OFFSET -0.000001 -8.586090 15.528839
					CHANNELS 6 Xposition Yposition Zposition Xrotation Yrotation Zrotation
					End Site
					{
						OFFSET 0.000035 1.387527 17.690113
					}
				}
			}
		}
	}
	JOINT B_thigh_R
	{
		OFFSET -8.695100 -5.449996 0.093453
		CHANNELS 6 Xposition Yposition Zposition Xrotation Yrotation Zrotation
		JOINT B_shin_R
		{
			OFFSET -3.148101 -40.844360 4.601152
			CHANNELS 6 Xposition Yposition Zposition Xrotation Yrotation Zrotation
			JOINT B_foot_R
			{
				OFFSET 0.017752 -38.797974 -0.869578
				CHANNELS 6 Xposition Yposition Zposition Xrotation Yrotation Zrotation
				JOINT B_toe_R
				{
					OFFSET -0.000007 -8.586243 15.529108
					CHANNELS 6 Xposition Yposition Zposition Xrotation Yrotation Zrotation
					End Site
					{
						OFFSET 0.000281 1.387665 17.690542
					}
				}
			}
		}
	}
}
MOTION
Frames: 4
Frame Time: 0.016667
0.007692337 0.901863 0.007692337 6.251776 -6.731326 -1.4926399999999944 -0.000000 8.378148 -0.000038 7.202741 4.736778 3.883854 -0.000000 19.980581 -1.446530 -3.944847 1.394274 -0.868049 -0.000001 26.789213 -3.910883 6.882539 1.053804 -2.937396 0.000000 7.395641 0.457894 4.610818 3.591188 2.494567 -0.000000 0.000025 -0.000003 10.264927 0.000737 -0.000857 0.000000 18.838343 -3.287146 0.536704 4.934854 6.332291 20.013103 -0.188546 -2.402216 30.000325 -19.170406 -58.632782 23.351610 -1.618717 0.537327 49.763908 -57.273315 35.365541 19.552284 -1.228145 0.466772 11.625516 8.081161 30.072285 14.197123 0.114714 5.224836 -9.050193 -2.402022 15.972867 5.096666 -0.322023 0.792609 -5.190230 2.609889 4.341938 3.728118 -0.655720 0.582662 -3.978435 2.079424 -3.753915 14.456997 0.622806 2.228925 -5.015978 -2.566895 12.806565 5.364189 -0.114283 0.451117 -3.457072 2.085192 7.019613 3.878794 -0.719936 0.412560 -2.085346 0.816853 -7.427658 13.580004 -0.491485 -3.419241 0.787655 0.787069 4.988242 -0.460770 1.240692 1.410925 3.514493 -0.552393 0.098794 -0.468331 -0.968797 -15.036713 14.299895 0.060761 -0.556460 -1.160742 -2.586329 8.268578 4.993185 -0.107717 0.072647 -1.337616 2.048731 4.145131 3.778398 -0.597121 0.268827 -0.629458 -0.426384 -11.672214 4.907189 -1.257134 4.950768 -5.221051 -4.181975 -5.421630 3.970402 -1.738106 2.899385 0.701323 9.324799 0.803175 3.139014 -1.269719 1.917775 -0.451847 5.229196 0.173809 0.000000 18.838343 -3.287146 0.088167 0.029829 -0.735288 -20.013107 -0.188548 -2.402219 33.089944 7.550106 54.901487 -23.351696 -1.619373 0.529250 -72.130985 96.491004 77.454974 -1.419134 -13.611038 -31.361555 -14.197119 0.114757 5.224841 -10.870232 9.573173 -16.604326 -5.096695 -0.322028 0.792610 -4.559786 -2.187920 0.114467 -3.728131 -0.655755 0.582664 -3.010407 -1.157855 11.593309 -14.457010 0.622861 2.228926 -6.408560 10.408070 -6.213069 -5.364194 -0.114288 0.451117 -2.698123 -1.414701 1.041000 -3.878806 -0.720064 0.412571 -1.590143 -0.100467 14.343824 -13.580012 -0.491518 -3.419235 -3.906194 11.560435 2.230844 -0.362933 -0.498452 7.601871 -3.514505 -0.552474 0.098805 -0.525438 1.422779 20.538724 -14.299911 0.060829 -0.556453 -3.687235 10.249106 -2.032641 -4.993217 -0.107861 0.072656 -0.839544 -1.311747 4.545027 -3.778397 -0.597136 0.268817 -0.419711 1.018449 17.794048 -4.907207 -1.257074 4.950774 -20.883957 -0.019975 -9.842503 -3.970414 -1.738104 2.899387 2.066501 -14.327082 -1.467651 -3.138890 -1.269741 1.917763 1.036040 -10.537780 -0.974571 8.695100 -5.449876 0.093445 -16.247003 10.880300 12.132536 3.148002 -40.844490 4.601266 41.921191 6.267049 -4.402139 -0.017699 -38.798000 -0.869711 -11.072944 1.811278 -1.442225 -0.000004 -8.586102 15.528830 -10.052319 0.000000 0.000007 -8.695100 -5.449987 0.093453 4.894657 0.350957 6.433456 -3.150451 -40.874893 4.604593 23.928740 -7.353908 -0.857955 0.017799 -38.826923 -0.870231 -18.525720 -8.347561 4.926711 -0.000001 -8.586100 15.529164 -10.775290 0.000003 -0.000021 
0.005069971 0.9018757 0.005069971 6.142065 -6.764206 -1.089730000000003 -0.000000 8.378147 -0.000038 6.351841 4.571134 3.947805 0.000000 19.980579 -1.446530 -2.705428 1.454183 -1.248041 0.000000 26.789217 -3.910884 6.277926 0.951965 -2.671645 0.000000 7.395625 0.457892 4.988121 3.540603 2.111197 0.000000 0.000033 -0.000003 10.264926 0.000736 -0.000857 0.000000 18.838346 -3.287147 0.633679 4.766236 7.462463 20.013107 -0.188548 -2.402215 28.164133 -20.723445 -61.129162 23.351601 -1.618713 0.537322 49.090827 -55.728285 35.010276 19.552294 -1.228144 0.466765 13.104508 4.378265 32.047859 14.197124 0.114719 5.224835 -8.418867 0.189969 15.883586 5.096679 -0.322020 0.792606 -4.905504 2.428105 2.357409 3.728118 -0.655719 0.582655 -4.021595 2.115002 -3.425726 14.457005 0.622802 2.228928 -4.421204 0.072976 12.453095 5.364194 -0.114280 0.451117 -3.275593 1.941611 5.178300 3.878790 -0.719932 0.412558 -2.092827 0.826377 -7.331534 13.579999 -0.491481 -3.419240 1.505281 3.420965 4.443447 -0.416370 1.001604 -1.513512 3.514490 -0.552386 0.098802 -0.470107 -0.990860 -15.302803 14.299893 0.060760 -0.556453 -0.498663 0.090719 7.832535 4.993187 -0.107715 0.072647 -1.179952 1.840495 1.594616 3.778395 -0.597118 0.268816 -0.625976 -0.434763 -11.760534 4.907189 -1.257135 4.950771 -5.221055 -4.181975 -5.421630 3.970404 -1.738104 2.899382 0.704368 9.335752 0.804764 3.139014 -1.269716 1.917776 -0.450644 5.233387 0.174489 0.000000 18.838346 -3.287147 0.044917 -1.299930 -0.300016 -20.013115 -0.188554 -2.402217 32.294586 7.675783 54.536233 -23.351698 -1.619365 0.529257 -104.840419 96.379973 110.070404 -1.863524 -14.011097 -30.087250 -14.197114 0.114764 5.224841 -10.936105 10.294544 -15.836087 -5.096692 -0.322026 0.792608 -4.569905 -2.195257 0.040944 -3.728126 -0.655755 0.582662 -3.046743 -1.197243 11.279538 -14.457000 0.622862 2.228927 -6.606942 11.188150 -5.696623 -5.364181 -0.114284 0.451119 -2.614467 -1.328163 1.997285 -3.878812 -0.720067 0.412567 -1.603043 -0.121675 14.146761 -13.580014 -0.491516 -3.419234 -4.079340 12.202427 1.966829 -0.357187 -0.330568 9.621234 -3.514508 -0.552471 0.098803 -0.525749 1.424444 20.558697 -14.299918 0.060837 -0.556457 -3.838162 10.766320 -2.114834 -4.993212 -0.107863 0.072655 -0.741427 -1.132550 6.538628 -3.778393 -0.597128 0.268819 -0.421273 1.013206 17.740723 -4.907201 -1.257073 4.950773 -20.903237 -0.288875 -9.994169 -3.970397 -1.738117 2.899393 2.105967 -14.473364 -1.485379 -3.138903 -1.269743 1.917761 1.085205 -10.716786 -0.999331 8.695100 -5.449881 0.093444 -16.902522 10.773928 11.800199 3.148000 -40.844509 4.601268 41.532178 7.351180 -4.367235 -0.017697 -38.798016 -0.869719 -11.366145 2.799678 -1.648971 -0.000007 -8.586094 15.528833 -9.433770 -0.000003 0.000007 -8.695100 -5.449989 0.093453 4.942406 1.345899 6.888745 -3.151989 -40.894863 4.606840 22.628325 -7.433893 -1.176717 0.017813 -38.845882 -0.870643 -21.401851 -9.135267 4.340776 -0.000004 -8.586089 15.529180 -6.719249 0.000005 -0.000019 
0.004957318 0.9039497 0.004957318 5.730613 -7.595341 -0.6821900000000056 -0.000000 8.378147 -0.000038 5.583379 4.861968 4.221517 0.000000 19.980579 -1.446530 -1.504884 1.695079 -1.891772 -0.000000 26.789213 -3.910884 5.385046 0.875756 -2.725704 0.000000 7.395635 0.457889 5.325742 3.570062 1.633247 0.000000 0.000025 -0.000001 10.264923 0.000737 -0.000857 -0.000001 18.838346 -3.287146 0.701178 4.850998 8.383577 20.013103 -0.188543 -2.402215 26.175447 -22.248412 -63.224117 23.351603 -1.618721 0.537328 50.153615 -54.855425 36.344447 19.552290 -1.228140 0.466768 14.973860 1.206926 34.875479 14.197124 0.114713 5.224836 -7.325177 3.745435 14.888650 5.096676 -0.322024 0.792605 -4.596242 2.214310 0.149777 3.728118 -0.655719 0.582660 -4.066763 2.151800 -3.083907 14.457006 0.622806 2.228930 -3.462005 3.622824 11.146829 5.364191 -0.114282 0.451118 -2.978684 1.685038 2.056705 3.878799 -0.719927 0.412558 -2.107693 0.845200 -7.141037 13.580004 -0.491480 -3.419237 2.362289 6.447800 2.488856 -0.373300 0.645832 -5.823239 3.514485 -0.552395 0.098804 -0.470804 -0.999225 -15.403765 14.299890 0.060765 -0.556450 0.394018 3.433731 6.062463 4.993190 -0.107725 0.072645 -0.952606 1.501642 -2.389124 3.778405 -0.597121 0.268819 -0.628458 -0.428784 -11.697527 4.907194 -1.257131 4.950770 -5.221047 -4.181975 -5.421637 3.970398 -1.738114 2.899389 0.716780 9.380543 0.811203 3.139021 -1.269719 1.917774 -0.445378 5.251787 0.177504 -0.000000 18.838346 -3.287146 0.132801 -2.457275 -1.108780 -20.013107 -0.188552 -2.402216 31.379269 8.295738 54.808785 -23.351698 -1.619364 0.529253 -125.672366 96.991439 130.696339 -2.751090 -15.363088 -28.884959 -14.197111 0.114756 5.224838 -10.897559 10.623619 -14.959041 -5.096699 -0.322023 0.792609 -4.571092 -2.196078 0.032596 -3.728127 -0.655761 0.582663 -3.066855 -1.218916 11.106145 -14.457010 0.622864 2.228924 -6.688941 11.539666 -5.117561 -5.364187 -0.114285 0.451118 -2.546413 -1.255455 2.789040 -3.878813 -0.720069 0.412572 -1.608652 -0.130734 14.062490 -13.580005 -0.491512 -3.419241 -4.112795 12.463687 1.666939 -0.357804 -0.141217 11.897215 -3.514506 -0.552474 0.098807 -0.526802 1.430113 20.628211 -14.299904 0.060831 -0.556461 -3.915966 11.011655 -2.093592 -4.993206 -0.107857 0.072657 -0.657978 -0.967350 8.343820 -3.778394 -0.597132 0.268815 -0.420463 1.015963 17.768633 -4.907204 -1.257074 4.950766 -20.925685 -0.602699 -10.170516 -3.970408 -1.738106 2.899392 2.152272 -14.645650 -1.506268 -3.138912 -1.269745 1.917761 1.142417 -10.925417 -1.027965 8.695100 -5.449881 0.093445 -16.749984 10.591135 10.821843 3.148000 -40.844501 4.601275 40.187064 8.831034 -4.217265 -0.017700 -38.798012 -0.869711 -12.270818 4.122528 -1.519758 -0.000000 -8.586122 15.528829 -8.258920 -0.000006 -0.000004 -8.695101 -5.449985 0.093453 4.009761 1.119329 6.435082 -3.152538 -40.901970 4.607644 22.233758 -7.157828 -1.370932 0.017814 -38.852661 -0.870807 -20.855112 -8.640302 4.158857 -0.000003 -8.586093 15.529174 -4.582968 0.000005 -0.000018 
0.005730688 0.9078676 0.005730688 5.145792 -9.044421 -0.26169000000000153 0.000000 8.378148 -0.000038 5.020070 5.425154 4.520583 0.000000 19.980577 -1.446530 -0.532004 2.008828 -2.574056 -0.000000 26.789215 -3.910884 4.398890 0.891097 -3.040447 0.000000 7.395633 0.457891 5.484495 3.847603 1.157679 -0.000000 0.000029 -0.000001 10.264923 0.000736 -0.000857 0.000000 18.838343 -3.287146 0.725685 5.085393 8.900355 20.013109 -0.188547 -2.402216 24.304120 -23.683770 -64.505468 23.351608 -1.618721 0.537322 53.500093 -55.535653 40.059900 19.552286 -1.228151 0.466773 16.524215 -0.011014 37.573909 14.197122 0.114715 5.224831 -5.905829 6.886790 12.617126 5.096671 -0.322017 0.792606 -4.286450 1.981716 -2.123623 3.728121 -0.655715 0.582661 -4.112061 2.188242 -2.742716 14.457006 0.622806 2.228928 -2.320852 6.695720 8.750256 5.364192 -0.114287 0.451119 -2.657377 1.372801 -1.505615 3.878790 -0.719935 0.412560 -2.127949 0.870642 -6.882759 13.579998 -0.491483 -3.419239 3.217719 9.054849 -0.224984 -0.356958 0.254662 -10.531089 3.514486 -0.552393 0.098797 -0.470309 -0.993256 -15.331639 14.299907 0.060757 -0.556456 1.322141 6.355636 3.535703 4.993196 -0.107718 0.072648 -0.729230 1.109378 -6.794307 3.778400 -0.597121 0.268818 -0.635621 -0.411623 -11.516372 4.907193 -1.257134 4.950769 -5.221049 -4.181976 -5.421636 3.970396 -1.738112 2.899383 0.736933 9.453321 0.821660 3.139017 -1.269722 1.917769 -0.436939 5.281228 0.182303 0.000000 18.838348 -3.287146 0.301332 -3.048551 -2.907729 -20.013109 -0.188554 -2.402216 30.589098 9.652535 56.220154 -23.351698 -1.619370 0.529257 -136.030881 97.347394 140.921952 -3.841559 -17.693122 -28.451995 -14.197115 0.114760 5.224836 -10.696241 10.156470 -14.382068 -5.096694 -0.322025 0.792608 -4.577954 -2.201067 -0.016813 -3.728136 -0.655754 0.582660 -3.075107 -1.227803 11.035390 -14.457012 0.622865 2.228925 -6.526133 11.005774 -4.836728 -5.364187 -0.114285 0.451121 -2.526337 -1.233673 3.024036 -3.878805 -0.720066 0.412570 -1.609597 -0.132490 14.046489 -13.580009 -0.491511 -3.419239 -3.855252 11.988256 1.142043 -0.362637 -0.011239 13.461575 -3.514504 -0.552476 0.098801 -0.528375 1.439406 20.741560 -14.299912 0.060836 -0.556460 -3.806059 10.669441 -2.135631 -4.993209 -0.107863 0.072655 -0.612525 -0.871733 9.375956 -3.778404 -0.597134 0.268815 -0.418661 1.021995 17.829951 -4.907206 -1.257068 4.950768 -20.950572 -0.946286 -10.363072 -3.970408 -1.738116 2.899389 2.203294 -14.835205 -1.528905 -3.138894 -1.269737 1.917765 1.205022 -11.153659 -1.059076 8.695101 -5.449881 0.093445 -16.020257 10.392380 9.549171 3.148001 -40.844475 4.601269 38.037160 10.219351 -3.991624 -0.017697 -38.798012 -0.869715 -13.346392 5.290761 -1.169585 -0.000001 -8.586117 15.528830 -6.931210 -0.000005 0.000005 -8.695100 -5.449986 0.093453 2.986232 0.387143 5.357433 -3.153071 -40.908909 4.608424 21.890376 -6.219239 -1.252082 0.017815 -38.859249 -0.870946 -19.581138 -7.363192 4.143054 -0.000003 -8.586100 15.529169 -4.195705 0.000006 -0.000016 
